<svg version="1" xmlns="http://www.w3.org/2000/svg" width="933.333" height="933.333" viewBox="0 0 700.000000 700.000000"><path d="M326.8.4c-.1.2-4.6.6-9.8 1-10.9.7-15.2 1.2-30 3.2-40.1 5.5-86.1 19.9-122.5 38.3-12.7 6.5-31.8 17.3-33.5 19.1-.3.3-3.2 2.3-6.5 4.5-22.8 15-49.2 38.9-66.6 60.2-14.2 17.4-32.1 47.1-38.7 64.3-.8 1.9-1.7 4.4-2.2 5.5-1.9 4.5-4.9 13.4-7 20.8-2.1 7.7-2.5 9.4-3.6 15.1-.2 1.6-.7 3.2-.9 3.6-.2.3-.6 3-1 6-.3 2.9-.7 5.6-.9 5.9-.8 1.3-1.9 18.4-1.9 29.6-.2 38 7.1 69.1 24.3 104 5.5 11.3 18.8 33.3 23.9 39.8C66.4 442 85 461.4 99.6 473c4.5 3.6 9.4 7.5 11 8.8 1.6 1.3 7.2 5.3 12.5 8.9l9.5 6.5-1.4 4.7c-10.2 33.6-17.3 50.9-30.5 74.1-11 19.2-23.3 36.1-38.7 53.1l-7.5 8.2 3.5-.6c1.9-.4 5.2-.9 7.4-1.3 2.1-.3 4.8-.8 6-1 1.1-.3 3-.6 4.1-.8 1.1-.2 4-.9 6.5-1.6 2.5-.7 5.4-1.4 6.5-1.6 1.1-.2 7.5-2.1 14-4.3 34-11 66.6-29.1 93.5-51.9 7.2-6.1 24.7-23.5 29.7-29.6l3.2-3.9 6 1.5c3.3.9 6.2 1.3 6.5 1.1.2-.3-.2-2.2-.9-4.4-3.6-10.2-6.2-42.2-4.4-53.9.4-2.5 1-7.2 1.3-10.4.4-3.2.8-6.2 1-6.5.2-.3.7-2.4 1-4.6 1.2-7.2 8.4-27.3 13.6-37.6 20.8-41.3 58.7-74.7 106.7-93.8 9.5-3.7 28.1-9.7 33.7-10.7 1.6-.3 5.6-1.1 9-1.9 3.3-.7 8.4-1.6 11.1-2 2.8-.3 6.5-.8 8.3-1.1 15.3-2.4 50.1-2.3 67.2.1 54.1 7.9 98.1 28.7 131.8 62.4 11.9 11.9 19.6 21.4 27.2 33.8 1.7 2.9 3.5 5.3 3.8 5.2.9 0 8.5-11.8 15.2-23.4 14-24.1 25.5-56.4 28.6-80 .3-2.2.7-5.1 1-6.5 1.7-10 2.2-34.1 1-49.5-1.5-19.6-9.2-50.2-16.9-68-2.6-6-12.2-25.2-13.9-28-16.5-26.3-26.9-39.7-43.8-56.5-13.2-13.3-20.8-20-33.5-29.4-4.9-3.7-9.7-7.3-10.5-7.9-1.6-1.2-6.3-4.4-13.8-9.1-14.8-9.3-39.9-22.4-53.2-27.6-3-1.2-6.8-2.7-8.5-3.5-21-9.1-67.1-21.2-91.4-23.9-2.9-.4-5.6-.8-6-1-.3-.2-4.4-.7-9.1-1-4.7-.4-9.8-.9-11.5-1.2-3.4-.5-58.1-1.4-58.7-1z"/><path d="M434.8 345.5c-.2.1-2.8.6-5.8.9-12.2 1.4-14.9 1.9-25.7 4.1-52.9 11.3-99.1 42.2-123.3 82.5-7.9 13.1-15.1 31.7-16.6 43-.4 2.5-1 5.4-1.4 6.5-.4 1.1-.7 8.5-.8 16.5 0 11.2.5 16.9 2.2 25 1.2 5.8 2.5 11 2.8 11.6.4.6.9 2.2 1.2 3.6.7 3.8 7.1 18.1 11.8 26.2 8.1 13.9 24 32.4 36.8 42.7 24.4 19.7 56.3 34.5 89 41.3 10.9 2.3 13.8 2.7 30.1 4.5 7.8.8 34.1.7 41.4-.3 2.8-.3 7.3-.9 10-1.2 2.8-.4 5.9-.8 7-1.1 1.1-.2 3.6-.7 5.5-1 1.9-.3 7.7-1.6 12.8-2.9l9.2-2.4 9.3 9.3c5 5.1 10.6 10.4 12.2 11.7 14.4 11.8 38 23.7 57.5 28.9 8.6 2.3 17 3.6 17 2.6 0-.3-2.1-2.8-4.6-5.5-2.6-2.7-5.4-6-6.2-7.2-.9-1.3-1.9-2.5-2.2-2.8-2.2-1.8-12.8-19.5-16.9-28.1-3.8-8-12.1-30.4-12.1-32.5 0-.2 4.4-3.5 9.8-7.5 5.3-3.9 14.9-12.4 21.2-18.8 38-38.2 50.8-88 35-135.1-3.7-11.2-7.2-18.6-13.4-28.5-21.4-34.6-56.9-60.9-101.9-75.6-5.8-1.9-12.8-3.8-15.7-4.4-.8-.2-4.9-1-9.1-1.9-4.1-.8-10-1.8-13-2.2-3-.3-7.5-1-10.1-1.4-4.4-.6-42.3-1.1-43-.5z"/></svg>